<svg width="48" height="48" viewBox="0 0 48 48" fill="none" xmlns="http://www.w3.org/2000/svg">
<path d="M33.9 6H14.1C9.626 6 6 9.626 6 14.1V33.9C6 38.373 9.626 42 14.1 42H33.9C38.374 42 42 38.373 42 33.9V14.1C42 9.626 38.374 6 33.9 6Z" fill="url(#paint0_linear_469_992)"/>
<path opacity="0.05" d="M12.3 30.9768C10.922 30.9768 9.80005 29.8628 9.80005 28.4928C9.80005 27.1228 10.922 26.0088 12.3 26.0088H16.098L20.967 17.6998L19.544 15.2708C19.206 14.6928 19.113 14.0198 19.282 13.3738C19.451 12.7278 19.862 12.1858 20.438 11.8498C20.822 11.6258 21.258 11.5078 21.7 11.5078C22.585 11.5078 23.412 11.9818 23.858 12.7448L23.865 12.7568L23.871 12.7458C24.316 11.9828 25.143 11.5088 26.029 11.5088C26.472 11.5088 26.908 11.6278 27.292 11.8518C28.482 12.5498 28.882 14.0848 28.184 15.2738L21.893 26.0098H25.221L25.514 26.3048C25.736 26.5278 25.939 26.7808 26.137 27.0788L26.334 27.4088C26.823 28.3198 26.932 29.3268 26.653 30.2628L26.442 30.9768H12.3Z" fill="black"/>
<path opacity="0.07" d="M12.3 30.4768C11.197 30.4768 10.3 29.5868 10.3 28.4928C10.3 27.3988 11.197 26.5088 12.3 26.5088H16.384L21.546 17.6998L19.974 15.0178C19.704 14.5568 19.629 14.0178 19.765 13.4998C19.9 12.9828 20.228 12.5498 20.689 12.2808C20.996 12.1018 21.345 12.0068 21.699 12.0068C22.407 12.0068 23.069 12.3858 23.426 12.9958L23.864 13.7448L24.302 12.9968C24.658 12.3868 25.32 12.0078 26.028 12.0078C26.382 12.0078 26.731 12.1028 27.038 12.2818C27.99 12.8408 28.309 14.0688 27.751 15.0198L21.02 26.5088H25.012L25.158 26.6558C25.356 26.8548 25.539 27.0828 25.718 27.3538L25.903 27.6638C26.321 28.4448 26.414 29.3098 26.173 30.1198L26.067 30.4768H12.3Z" fill="black"/>
<path d="M25.302 27.63C25.154 27.406 24.99 27.196 24.804 27.009H20.148L27.321 14.767C27.74 14.052 27.5 13.133 26.786 12.714C26.07 12.295 25.151 12.535 24.734 13.25L23.864 14.734L22.994 13.249C22.576 12.534 21.657 12.295 20.942 12.713C20.227 13.131 19.987 14.05 20.406 14.765L22.126 17.7L16.671 27.009H12.3C11.471 27.009 10.8 27.674 10.8 28.493C10.8 29.312 11.471 29.977 12.3 29.977H25.694C25.888 29.324 25.835 28.595 25.473 27.919L25.302 27.63Z" fill="white"/>
<path opacity="0.05" d="M14.5 36.179C14.057 36.179 13.621 36.06 13.237 35.835C12.661 35.497 12.251 34.955 12.082 34.309C11.914 33.663 12.007 32.989 12.345 32.413L13.058 31.195L13.498 31.107C13.859 31.036 14.196 31 14.528 31L14.646 31.001C15.727 31.033 16.706 31.495 17.412 32.301L17.888 32.843L16.659 34.943C16.211 35.706 15.385 36.179 14.5 36.179Z" fill="black"/>
<path opacity="0.07" d="M14.5001 35.679C14.1461 35.679 13.7961 35.584 13.4901 35.404C13.0301 35.134 12.7011 34.7 12.5661 34.183C12.4311 33.666 12.5051 33.127 12.7761 32.666L13.3761 31.642L13.5961 31.598C13.9251 31.532 14.2301 31.5 14.5281 31.5L14.6401 31.501C15.5731 31.529 16.4231 31.93 17.0361 32.63L17.2741 32.901L16.2271 34.69C15.8701 35.3 15.2081 35.679 14.5001 35.679Z" fill="black"/>
<path d="M14.626 32.0019C14.309 31.9929 13.998 32.0279 13.694 32.0889L13.207 32.9199C12.788 33.6349 13.028 34.5539 13.743 34.9729C13.981 35.1129 14.243 35.1789 14.5 35.1789C15.015 35.1789 15.517 34.9129 15.795 34.4379L16.66 32.9609C16.173 32.4049 15.47 32.0269 14.63 32.0019H14.626Z" fill="white"/>
<path opacity="0.05" d="M33.229 36.1791C32.344 36.1791 31.517 35.7051 31.071 34.9431L25.044 24.6581L25.027 24.6061C24.61 23.3171 24.692 21.9881 25.241 20.8131L26.91 17.9551L31.63 26.0101H35.7C37.078 26.0101 38.2 27.1241 38.2 28.4941C38.2 29.8641 37.078 30.9781 35.7 30.9781H34.541L35.383 32.4151C35.721 32.9911 35.814 33.6641 35.646 34.3111C35.478 34.9581 35.067 35.4991 34.491 35.8371C34.109 36.0601 33.673 36.1791 33.229 36.1791Z" fill="black"/>
<path opacity="0.07" d="M33.229 35.6788C32.521 35.6788 31.859 35.3008 31.502 34.6908L25.502 24.4528L25.485 24.4008C25.124 23.2828 25.197 22.0838 25.693 21.0248L26.909 18.9438L31.342 26.5088H35.7C36.803 26.5088 37.7 27.3988 37.7 28.4928C37.7 29.5868 36.803 30.4768 35.7 30.4768H33.669L34.952 32.6668C35.223 33.1278 35.297 33.6668 35.162 34.1838C35.027 34.7008 34.699 35.1348 34.238 35.4048C33.933 35.5838 33.584 35.6788 33.229 35.6788Z" fill="black"/>
<path d="M35.7 27.0091H31.057L26.91 19.9331L26.147 21.2361C25.703 22.1861 25.643 23.2601 25.962 24.2471L31.934 34.4381C32.213 34.9141 32.714 35.1791 33.229 35.1791C33.486 35.1791 33.748 35.1131 33.986 34.9731C34.701 34.5541 34.94 33.6351 34.521 32.9201L32.796 29.9771H35.7C36.529 29.9771 37.2 29.3121 37.2 28.4931C37.2 27.6741 36.529 27.0091 35.7 27.0091Z" fill="white"/>
<defs>
<linearGradient id="paint0_linear_469_992" x1="24" y1="4.617" x2="24" y2="40.096" gradientUnits="userSpaceOnUse">
<stop stop-color="#33BEF0"/>
<stop offset="1" stop-color="#0A85D9"/>
</linearGradient>
</defs>
</svg>
