<svg width="49" height="48" viewBox="0 0 49 48" fill="none" xmlns="http://www.w3.org/2000/svg">
<path d="M4.81006 24C4.81006 21.3736 5.32737 18.7728 6.33247 16.3463C7.33756 13.9198 8.81075 11.715 10.6679 9.85786C14.4187 6.10714 19.5057 4 24.8101 4C30.1144 4 35.2015 6.10714 38.9522 9.85786C42.7029 13.6086 44.8101 18.6957 44.8101 24C44.8101 26.6264 44.2927 29.2272 43.2876 31.6537C42.2826 34.0802 40.8094 36.285 38.9522 38.1421C37.095 39.9993 34.8902 41.4725 32.4637 42.4776C30.0372 43.4827 27.4365 44 24.8101 44C19.5057 44 14.4186 41.8929 10.6679 38.1421C6.91719 34.3914 4.81006 29.3043 4.81006 24ZM20.8101 34L30.8101 24L20.8101 14L20.8101 34Z" fill="#C3A66E"/>
</svg>
