<svg width="300" height="525" fill="none" xmlns="http://www.w3.org/2000/svg"><g filter="url(#a)" fill-rule="evenodd" clip-rule="evenodd"><path d="M260.484 262.484C260.484 118.623 143.861 2 0 2V0c47.15 0 91.396 12.432 129.639 34.196l26.509-29.065 1.303 1.189-26.244 28.775c35.952 20.79 66.516 49.862 89.083 84.608L254.074 100l.889 1.524-33.716 19.663c19.553 30.554 32.951 65.428 38.444 102.87L299.276 219l.223 1.75-39.558 5.053a264.795 264.795 0 0 1 2.543 36.681c0 23.364-3.053 46.016-8.781 67.577l39.796 5.084-.223 1.75-40.036-5.114c-8.957 32.806-24.118 63.052-44.144 89.398l33.804 21.887-.959 1.48-33.921-21.962c-23.252 30.168-52.921 55.136-86.962 72.861l28.054 27.996-1.246 1.249-28.454-28.395C83.591 514.626 43.003 524.968 0 524.968v-2c143.861 0 260.484-116.623 260.484-260.484Z" fill="#00E0FF"/><path d="M260.484 262.484C260.484 118.623 143.861 2 0 2V0c47.15 0 91.396 12.432 129.639 34.196l26.509-29.065 1.303 1.189-26.244 28.775c35.952 20.79 66.516 49.862 89.083 84.608L254.074 100l.889 1.524-33.716 19.663c19.553 30.554 32.951 65.428 38.444 102.87L299.276 219l.223 1.75-39.558 5.053a264.795 264.795 0 0 1 2.543 36.681c0 23.364-3.053 46.016-8.781 67.577l39.796 5.084-.223 1.75-40.036-5.114c-8.957 32.806-24.118 63.052-44.144 89.398l33.804 21.887-.959 1.48-33.921-21.962c-23.252 30.168-52.921 55.136-86.962 72.861l28.054 27.996-1.246 1.249-28.454-28.395C83.591 514.626 43.003 524.968 0 524.968v-2c143.861 0 260.484-116.623 260.484-260.484Z" fill="url(#b)"/></g><defs><linearGradient id="b" x1="151.843" y1=".951" x2="152.007" y2="712.668" gradientUnits="userSpaceOnUse"><stop stop-color="#0085FF"/><stop offset=".333" stop-color="#00E0FF"/><stop offset=".667" stop-color="#87E245"/><stop offset="1" stop-color="#B8E400"/></linearGradient><filter id="a" x="-50" y="-50" width="399.499" height="624.968" filterUnits="userSpaceOnUse" color-interpolation-filters="sRGB"><feFlood flood-opacity="0" result="BackgroundImageFix"/><feGaussianBlur in="BackgroundImageFix" stdDeviation="25"/><feComposite in2="SourceAlpha" operator="in" result="effect1_backgroundBlur_2_41"/><feBlend in="SourceGraphic" in2="effect1_backgroundBlur_2_41" result="shape"/></filter></defs></svg>