<svg width="48" height="48" fill="none" xmlns="http://www.w3.org/2000/svg"><path d="M44 12V8L28 18 12 8v4l16 10 16-10Zm0-8a4 4 0 0 1 4 4v24a4 4 0 0 1-4 4H12c-2.22 0-4-1.8-4-4V8c0-2.22 1.78-4 4-4h32ZM4 12v28h36v4H4a4 4 0 0 1-4-4V12h4Z" fill="#00E0FF" fill-opacity=".65"/><path d="M44 12V8L28 18 12 8v4l16 10 16-10Zm0-8a4 4 0 0 1 4 4v24a4 4 0 0 1-4 4H12c-2.22 0-4-1.8-4-4V8c0-2.22 1.78-4 4-4h32ZM4 12v28h36v4H4a4 4 0 0 1-4-4V12h4Z" fill="url(#a)" fill-opacity=".8"/><defs><linearGradient id="a" x1="24" y1="4" x2="24" y2="44" gradientUnits="userSpaceOnUse"><stop stop-color="#5FF"/><stop offset="1" stop-color="#00ECFF" stop-opacity="0"/></linearGradient></defs></svg>