<svg width="48" height="48" viewBox="0 0 48 48" fill="none" xmlns="http://www.w3.org/2000/svg">
<path d="M44 12V8L28 18L12 8V12L28 22L44 12ZM44 4C45.0609 4 46.0783 4.42143 46.8284 5.17157C47.5786 5.92172 48 6.93913 48 8V32C48 33.0609 47.5786 34.0783 46.8284 34.8284C46.0783 35.5786 45.0609 36 44 36H12C9.78 36 8 34.2 8 32V8C8 5.78 9.78 4 12 4H44ZM4 12V40H40V44H4C2.93913 44 1.92172 43.5786 1.17157 42.8284C0.421427 42.0783 0 41.0609 0 40V12H4Z" fill="#00E0FF" fill-opacity="0.65"/>
<path d="M44 12V8L28 18L12 8V12L28 22L44 12ZM44 4C45.0609 4 46.0783 4.42143 46.8284 5.17157C47.5786 5.92172 48 6.93913 48 8V32C48 33.0609 47.5786 34.0783 46.8284 34.8284C46.0783 35.5786 45.0609 36 44 36H12C9.78 36 8 34.2 8 32V8C8 5.78 9.78 4 12 4H44ZM4 12V40H40V44H4C2.93913 44 1.92172 43.5786 1.17157 42.8284C0.421427 42.0783 0 41.0609 0 40V12H4Z" fill="url(#paint0_linear_2_110)" fill-opacity="0.8"/>
<defs>
<linearGradient id="paint0_linear_2_110" x1="24" y1="4" x2="24" y2="44" gradientUnits="userSpaceOnUse">
<stop stop-color="#55FFFF"/>
<stop offset="1" stop-color="#00ECFF" stop-opacity="0"/>
</linearGradient>
</defs>
</svg>
