<svg width="48" height="48" fill="none" xmlns="http://www.w3.org/2000/svg"><path d="M24 5a18.61 18.61 0 0 0-7.271 1.482 18.976 18.976 0 0 0-6.164 4.221C7.002 14.355 5 19.308 5 24.472c0 8.606 5.453 15.908 12.996 18.498.95.156 1.254-.448 1.254-.974v-3.29c-5.263 1.168-6.384-2.61-6.384-2.61-.874-2.258-2.109-2.862-2.109-2.862-1.729-1.207.133-1.168.133-1.168 1.9.136 2.907 2.005 2.907 2.005 1.653 2.96 4.446 2.084 5.529 1.616.171-1.265.665-2.122 1.197-2.609-4.218-.487-8.645-2.161-8.645-9.58 0-2.161.722-3.894 1.957-5.277-.19-.486-.855-2.512.19-5.14 0 0 1.596-.526 5.225 1.986a17.494 17.494 0 0 1 4.75-.643c1.615 0 3.249.215 4.75.643 3.629-2.512 5.225-1.986 5.225-1.986 1.045 2.628.38 4.654.19 5.14 1.235 1.383 1.957 3.116 1.957 5.277 0 7.438-4.446 9.074-8.683 9.56.684.604 1.311 1.792 1.311 3.603v5.335c0 .526.304 1.15 1.273.974C37.566 40.36 43 33.078 43 24.472c0-2.557-.491-5.09-1.446-7.452a19.51 19.51 0 0 0-4.119-6.317 18.976 18.976 0 0 0-6.164-4.22A18.601 18.601 0 0 0 24 5Z" fill="#00E0FF" fill-opacity=".65"/><path d="M24 5a18.61 18.61 0 0 0-7.271 1.482 18.976 18.976 0 0 0-6.164 4.221C7.002 14.355 5 19.308 5 24.472c0 8.606 5.453 15.908 12.996 18.498.95.156 1.254-.448 1.254-.974v-3.29c-5.263 1.168-6.384-2.61-6.384-2.61-.874-2.258-2.109-2.862-2.109-2.862-1.729-1.207.133-1.168.133-1.168 1.9.136 2.907 2.005 2.907 2.005 1.653 2.96 4.446 2.084 5.529 1.616.171-1.265.665-2.122 1.197-2.609-4.218-.487-8.645-2.161-8.645-9.58 0-2.161.722-3.894 1.957-5.277-.19-.486-.855-2.512.19-5.14 0 0 1.596-.526 5.225 1.986a17.494 17.494 0 0 1 4.75-.643c1.615 0 3.249.215 4.75.643 3.629-2.512 5.225-1.986 5.225-1.986 1.045 2.628.38 4.654.19 5.14 1.235 1.383 1.957 3.116 1.957 5.277 0 7.438-4.446 9.074-8.683 9.56.684.604 1.311 1.792 1.311 3.603v5.335c0 .526.304 1.15 1.273.974C37.566 40.36 43 33.078 43 24.472c0-2.557-.491-5.09-1.446-7.452a19.51 19.51 0 0 0-4.119-6.317 18.976 18.976 0 0 0-6.164-4.22A18.601 18.601 0 0 0 24 5Z" fill="url(#a)" fill-opacity=".8"/><defs><linearGradient id="a" x1="24" y1="5" x2="24" y2="43" gradientUnits="userSpaceOnUse"><stop stop-color="#5FF"/><stop offset="1" stop-color="#00ECFF" stop-opacity="0"/></linearGradient></defs></svg>