<svg width="48" height="48" fill="none" xmlns="http://www.w3.org/2000/svg"><path d="M38 6a4 4 0 0 1 4 4v28a4 4 0 0 1-4 4H10a4 4 0 0 1-4-4V10a4 4 0 0 1 4-4h28Zm-1 31V26.4a6.52 6.52 0 0 0-6.52-6.52c-1.7 0-3.68 1.04-4.64 2.6v-2.22h-5.58V37h5.58v-9.86c0-1.54 1.24-2.8 2.78-2.8a2.8 2.8 0 0 1 2.8 2.8V37H37ZM13.76 17.12a3.36 3.36 0 0 0 3.36-3.36c0-1.86-1.5-3.38-3.36-3.38a3.38 3.38 0 0 0-3.38 3.38c0 1.86 1.52 3.36 3.38 3.36ZM16.54 37V20.26H11V37h5.54Z" fill="#00E0FF" fill-opacity=".65"/><path d="M38 6a4 4 0 0 1 4 4v28a4 4 0 0 1-4 4H10a4 4 0 0 1-4-4V10a4 4 0 0 1 4-4h28Zm-1 31V26.4a6.52 6.52 0 0 0-6.52-6.52c-1.7 0-3.68 1.04-4.64 2.6v-2.22h-5.58V37h5.58v-9.86c0-1.54 1.24-2.8 2.78-2.8a2.8 2.8 0 0 1 2.8 2.8V37H37ZM13.76 17.12a3.36 3.36 0 0 0 3.36-3.36c0-1.86-1.5-3.38-3.36-3.38a3.38 3.38 0 0 0-3.38 3.38c0 1.86 1.52 3.36 3.38 3.36ZM16.54 37V20.26H11V37h5.54Z" fill="url(#a)" fill-opacity=".8"/><defs><linearGradient id="a" x1="24" y1="6" x2="24" y2="42" gradientUnits="userSpaceOnUse"><stop stop-color="#5FF"/><stop offset="1" stop-color="#00ECFF" stop-opacity="0"/></linearGradient></defs></svg>