<svg width="48" height="48" viewBox="0 0 48 48" fill="none" xmlns="http://www.w3.org/2000/svg">
<path d="M24 6.72021C14.4622 6.72021 6.71997 14.4624 6.71997 24.0002C6.71997 33.538 14.4622 41.2802 24 41.2802C33.5378 41.2802 41.28 33.538 41.28 24.0002C41.28 14.4624 33.5378 6.72021 24 6.72021ZM24 7.68021C33.019 7.68021 40.32 14.9812 40.32 24.0002C40.32 33.0192 33.019 40.3202 24 40.3202C14.981 40.3202 7.67997 33.0192 7.67997 24.0002C7.67997 14.9812 14.981 7.68021 24 7.68021ZM24 8.88021C23.9134 8.87899 23.8329 8.92447 23.7893 8.99923C23.7456 9.07399 23.7456 9.16645 23.7893 9.24121C23.8329 9.31597 23.9134 9.36144 24 9.36022C32.0884 9.36022 38.64 15.9118 38.64 24.0002C38.64 29.6551 35.4355 34.5586 30.7443 36.9977C30.6648 37.0353 30.6122 37.1133 30.6072 37.2011C30.6022 37.2889 30.6456 37.3724 30.7203 37.4188C30.7951 37.4651 30.8892 37.4669 30.9656 37.4233C35.8111 34.904 39.12 29.8365 39.12 24.0002C39.12 15.6524 32.3478 8.88021 24 8.88021ZM19.9237 9.44365C19.9021 9.44421 19.8807 9.44767 19.86 9.45396C18.1068 9.95201 16.4835 10.7583 15.0525 11.8108C14.9786 11.8597 14.9376 11.9453 14.946 12.0335C14.9543 12.1217 15.0105 12.1982 15.0922 12.2324C15.1739 12.2666 15.2679 12.253 15.3365 12.1971C16.7222 11.1779 18.2941 10.3973 19.9912 9.91521C20.1081 9.88337 20.1829 9.76949 20.1657 9.64962C20.1486 9.52975 20.0448 9.44144 19.9237 9.44365ZM13.3687 13.339C13.3065 13.3414 13.2477 13.368 13.2047 13.413C10.5296 16.1402 8.87997 19.8792 8.87997 24.0002C8.87997 32.348 15.6522 39.1202 24 39.1202C24.4998 39.1202 24.9936 39.0963 25.4812 39.049C25.6132 39.0359 25.7096 38.9184 25.6967 38.7865C25.6837 38.6545 25.5663 38.558 25.4343 38.5708C24.9619 38.6167 24.4842 38.6402 24 38.6402C15.9116 38.6402 9.35997 32.0886 9.35997 24.0002C9.35997 20.0073 10.9572 16.3907 13.5478 13.7496C13.6184 13.6799 13.6389 13.5738 13.5992 13.4828C13.5595 13.3918 13.4679 13.3346 13.3687 13.339ZM19.5422 15.7212C18.4265 15.7212 17.3701 16.21 16.6228 17.1133C15.8754 18.0167 15.4331 19.3162 15.4331 20.9355C15.4331 21.1746 15.6089 21.3772 15.8456 21.4108L17.7928 21.6874C18.055 21.7241 18.2974 21.5417 18.3347 21.2796C18.468 20.3407 18.6747 19.7067 18.9131 19.3605C19.1515 19.0144 19.3682 18.9049 19.8065 18.9049C20.3257 18.9049 20.6562 18.959 21.1322 19.1486C21.6082 19.3383 22.2256 19.678 23.1965 20.2352C25.1478 21.3552 25.8898 21.6921 27.8934 21.6921C28.9865 21.6921 30.1026 21.2984 30.9009 20.4208C31.6993 19.5433 32.1469 18.2065 32.0006 16.4383C31.9801 16.1895 31.7722 15.9979 31.5225 15.9977H29.5753C29.3102 15.9977 29.0953 16.2126 29.0953 16.4777C29.0953 17.2599 28.9561 17.7979 28.7597 18.094C28.5633 18.3901 28.3439 18.5093 27.9056 18.5093C27.3865 18.5093 27.0523 18.4551 26.535 18.2618C26.0177 18.0685 25.3269 17.7244 24.2156 17.1658C23.111 16.6107 22.4814 16.256 21.8315 16.0268C21.1817 15.7975 20.5439 15.7212 19.5422 15.7212ZM19.5422 16.6812C20.4988 16.6812 20.978 16.7431 21.5118 16.9315C22.0457 17.1198 22.6656 17.4614 23.7844 18.0236C24.8964 18.5826 25.5992 18.9366 26.1994 19.1608C26.7995 19.3851 27.3073 19.4693 27.9056 19.4693C28.5847 19.4693 29.1999 19.1666 29.5594 18.6246C29.8471 18.1907 29.9639 17.6141 30.0103 16.9577H31.0097C31.026 18.249 30.7203 19.1934 30.1912 19.7749C29.5957 20.4295 28.7587 20.7321 27.8934 20.7321C25.9802 20.7321 25.6172 20.5167 23.6747 19.4018C22.6987 18.8416 22.0598 18.4841 21.4875 18.2561C20.9152 18.0282 20.4048 17.9449 19.8065 17.9449C19.1274 17.9449 18.5093 18.2548 18.1228 18.8158C17.8046 19.2778 17.6231 19.915 17.4834 20.674L16.4512 20.5268C16.5249 19.3113 16.8476 18.3478 17.3625 17.7255C17.9399 17.0276 18.6994 16.6812 19.5422 16.6812ZM22.5872 20.733C22.3298 20.7431 22.1262 20.9545 22.1259 21.2121V34.0343C22.1259 34.2994 22.3408 34.5142 22.6059 34.5143H24.8409C25.106 34.5142 25.3209 34.2994 25.3209 34.0343V22.053C25.3208 21.8531 25.1968 21.6743 25.0097 21.604L22.7747 20.763C22.7148 20.7406 22.651 20.7304 22.5872 20.733ZM23.0859 21.9058L24.3609 22.3858V33.5543H23.0859V21.9058ZM28.5065 37.9418C28.4848 37.9429 28.4634 37.947 28.4428 37.954C28.0939 38.0649 27.7395 38.1633 27.3797 38.2483C27.2929 38.2647 27.2222 38.3274 27.1955 38.4115C27.1688 38.4957 27.1904 38.5877 27.2518 38.6511C27.3132 38.7145 27.4044 38.7392 27.4893 38.7152C27.861 38.6274 28.2275 38.5261 28.5881 38.4115C28.7047 38.3767 28.7768 38.2602 28.756 38.1404C28.7352 38.0205 28.628 37.9352 28.5065 37.9418Z" fill="white"/>
</svg>
