<svg width="58" height="58" fill="none" xmlns="http://www.w3.org/2000/svg"><g clip-path="url(#a)"><path d="M15.695 22.444a40.258 40.258 0 0 0 13.027 21.165l7.065-4.349c.9-.553 1.96-.52 2.8-.019a30.294 30.294 0 0 0 8.91 3.683 2.667 2.667 0 0 1 1.977 3.212l-2.161 9.08a2.666 2.666 0 0 1-3.212 1.977A45.334 45.334 0 0 1 10.497 2.594 2.666 2.666 0 0 1 13.709.617l9.08 2.162a2.666 2.666 0 0 1 1.976 3.211 30.292 30.292 0 0 0-.726 9.614 2.674 2.674 0 0 1-1.278 2.491l-7.066 4.349Z" fill="#00E0FF" fill-opacity=".65"/><path d="M15.695 22.444a40.258 40.258 0 0 0 13.027 21.165l7.065-4.349c.9-.553 1.96-.52 2.8-.019a30.294 30.294 0 0 0 8.91 3.683 2.667 2.667 0 0 1 1.977 3.212l-2.161 9.08a2.666 2.666 0 0 1-3.212 1.977A45.334 45.334 0 0 1 10.497 2.594 2.666 2.666 0 0 1 13.709.617l9.08 2.162a2.666 2.666 0 0 1 1.976 3.211 30.292 30.292 0 0 0-.726 9.614 2.674 2.674 0 0 1-1.278 2.491l-7.066 4.349Z" fill="url(#b)" fill-opacity=".8"/></g><defs><linearGradient id="b" x1="34.462" y1="5.557" x2="23.348" y2="52.253" gradientUnits="userSpaceOnUse"><stop stop-color="#5FF"/><stop offset="1" stop-color="#00ECFF" stop-opacity="0"/></linearGradient><clipPath id="a"><path fill="#fff" transform="rotate(13.389 5.557 47.347)" d="M0 0h48v48H0z"/></clipPath></defs></svg>