<svg width="48" height="48" viewBox="0 0 48 48" fill="none" xmlns="http://www.w3.org/2000/svg">
<path d="M44.083 29.7901C43.9 28.9611 43.148 27.9941 41.631 27.9941C41.321 27.9941 40.982 28.0331 40.596 28.1131C39.888 28.2591 39.285 28.3301 38.754 28.3541C42.887 21.3141 45.57 11.5351 42.913 8.14014C39.412 3.66714 34.699 2.99914 32.202 2.99914L31.967 3.00014C31.038 3.01514 30.074 3.12914 29.104 3.33914L25.521 4.11314C25.033 4.05214 24.536 4.00914 24.018 4.00014H23.988H23.972L23.82 3.99914C22.227 3.99914 20.774 4.33714 19.479 4.97214L18.228 4.47914C16.508 3.80114 13.92 2.99414 11.36 2.99414C11.216 2.99414 11.073 2.99714 10.929 3.00214C8.407 3.09314 6.241 4.05014 4.664 5.76914C2.696 7.91514 1.8 11.0541 2.003 15.1001C2.013 15.3091 4.461 36.0001 11.4 36.0001H11.425L11.489 35.9991C12.39 35.9771 13.249 35.6151 14.052 34.9221C14.665 35.3821 15.458 35.6541 16.197 35.7621C16.685 35.8771 17.563 36.0401 18.615 36.0401C19.899 36.0401 21.057 35.7771 22.055 35.3021C22.054 36.1821 22.049 37.2961 22.039 38.7201L22.038 38.7951L22.043 38.8701C22.14 40.2891 22.385 41.5681 22.754 42.5711C23.805 45.4301 25.62 47.0051 27.865 47.0051C27.958 47.0051 28.053 47.0021 28.149 46.9961C29.995 46.8821 31.866 45.8451 33.153 44.2241C34.546 42.4691 34.868 40.6171 34.992 39.1981L35 39.1111V39.0231V34.9441L35.103 34.9541L35.539 34.9921L35.581 34.9961L35.623 34.9981C35.747 35.0041 35.875 35.0061 36.004 35.0061C37.511 35.0061 39.366 34.6151 40.62 34.0321C41.819 33.4761 44.559 31.9481 44.083 29.7901Z" fill="white"/>
<path d="M33 33.9998C33 33.7948 33.012 33.6238 33.018 33.4348C33.008 33.1838 33 32.9998 33 32.9998C33 32.9998 33.012 32.9908 33.032 32.9778C33.181 30.3048 33.918 29.2748 34.707 28.6878C34.597 28.5348 34.47 28.3698 34.351 28.2128C34.018 27.7758 33.603 27.2338 33.159 26.5388L33.077 26.3808C33.01 26.2168 32.848 25.9338 32.642 25.5618C31.459 23.4218 28.997 18.9698 30.682 16.1578C31.42 14.9258 32.804 14.2158 34.803 14.0408C33.986 11.7178 30.925 6.11483 23.985 5.99983C23.983 5.99983 23.981 5.99983 23.979 5.99983C17.938 5.90183 15.953 11.3918 15.307 14.6718C16.197 14.2948 17.213 14.0658 18.143 14.0658C18.157 14.0658 18.172 14.0658 18.186 14.0658C20.476 14.0828 22.051 15.3048 22.509 17.4198C22.844 18.9718 23.005 20.3298 23.001 21.5728C22.991 24.2918 22.443 25.7218 21.959 26.9838L21.805 27.3918C21.681 27.7258 21.55 28.0368 21.426 28.3288C21.3 28.6268 21.189 28.8918 21.108 29.1308C21.592 29.2408 21.972 29.3958 22.233 29.5108L22.384 29.5768C22.431 29.5968 22.478 29.6198 22.521 29.6458C23.369 30.1618 23.897 30.9548 24.01 31.8788C24.071 32.3768 24.061 35.7718 24.04 38.7338C24.127 40.0188 24.345 41.0978 24.633 41.8798C25.042 42.9938 26.064 45.1208 28.027 44.9988C29.397 44.9138 30.714 44.0798 31.588 42.9798C32.526 41.7988 32.872 40.4928 33.002 39.0218V33.9998H33Z" fill="#0277BD"/>
<path d="M15.114 28.9171C13.501 27.2341 12.715 24.9701 13.01 22.8611C13.295 20.8261 13.134 18.8341 13.047 17.7631C13.018 17.4061 12.999 17.1401 13 16.9931C13 16.9851 13.002 16.9781 13.003 16.9701C13.003 16.9661 13.001 16.9631 13.001 16.9591C13.122 13.9381 14.287 9.1721 17.494 6.3391C15.932 5.7241 13.388 4.9131 11 5.0001C7.25804 5.1361 3.63604 7.7241 4.00004 15.0001C4.13704 17.7301 7.22204 34.1031 11.44 34.0001C12.043 33.9851 12.669 33.5981 13.312 32.8241C14.329 31.6011 15.317 30.4921 16.02 29.7201C15.705 29.4811 15.401 29.2171 15.114 28.9171ZM37.023 14.7311C37.038 14.8851 37.025 15.0171 37.001 15.1391C37.032 16.0591 36.933 16.9521 36.832 17.8161C36.758 18.4521 36.682 19.1091 36.661 19.7681C36.64 20.4131 36.731 21.0501 36.827 21.7241C37.052 23.3021 37.286 25.0831 36.062 27.1611C36.287 27.4571 36.485 27.7321 36.643 27.9981C41.253 20.5231 43.111 11.6371 41.338 9.3721C38.655 5.9441 34.941 4.9521 31.999 5.0001C31.078 5.0151 30.241 5.1391 29.526 5.2941C34.602 7.7541 36.863 13.0261 37.023 14.7311ZM41 30.0711C38.335 30.6211 37.053 30.3281 36.431 29.9451C36.331 30.0171 36.231 30.0781 36.138 30.1351C35.766 30.3601 35.177 30.7181 35.033 32.9171C35.116 32.9331 35.189 32.9421 35.279 32.9611L35.714 33.0001C37.034 33.0601 38.763 32.6901 39.777 32.2191C41.962 31.2051 43.153 29.6271 41 30.0711ZM22.023 32.1191C21.986 31.8211 21.825 31.5801 21.531 31.3871L21.423 31.3401C21.062 31.1811 20.653 31.0001 20 31.0001H19.996C19.869 31.0101 19.743 31.0191 19.616 31.0191C19.564 31.0191 19.513 31.0121 19.461 31.0101C18.987 31.3751 18.313 31.6571 16.645 32.0001C13.665 32.7591 15.424 33.6551 16.567 33.7941C17.673 34.0711 20.302 34.4081 22.048 32.9851C22.043 32.5371 22.035 32.2291 22.023 32.1191Z" fill="#0277BD"/>
<path d="M20.681 18.5012C20.389 18.8032 19.928 19.0672 19.419 18.9852C18.591 18.8512 17.956 17.8522 18.002 17.4772C18.046 17.1032 18.753 16.9082 19.58 17.0422C19.867 17.0892 20.128 17.1702 20.348 17.2702C20.028 16.5822 19.449 16.1852 18.566 16.0882C17.001 15.9142 15.34 16.7322 15.006 17.1852C15.013 17.2952 15.026 17.4362 15.039 17.6022C15.132 18.7492 15.304 20.8862 14.989 23.1392C14.781 24.6242 15.382 26.3082 16.556 27.5342C17.313 28.3242 18.197 28.8242 19.069 28.9722C19.18 28.4942 19.378 28.0282 19.582 27.5472C19.695 27.2822 19.815 27.0002 19.928 26.6952L20.09 26.2682C20.533 25.1132 20.99 23.9182 20.999 21.5652C21.003 20.6602 20.892 19.6272 20.681 18.5012ZM34.847 22.0072C34.743 21.2782 34.636 20.5232 34.662 19.7042C34.685 18.9622 34.767 18.2622 34.846 17.5852C34.908 17.0522 34.956 16.5402 34.984 16.0352C33.695 16.1422 32.839 16.5142 32.433 17.1432C32.601 17.0862 32.791 17.0412 33.001 17.0142C33.893 16.8982 34.544 17.1552 34.619 17.6512C34.674 18.0142 34.366 18.3562 34.231 18.4872C33.954 18.7562 33.605 18.9292 33.25 18.9752C33.186 18.9832 33.121 18.9872 33.058 18.9872C32.705 18.9872 32.368 18.8662 32.109 18.6872C32.221 20.6602 33.676 23.2992 34.392 24.5942C34.545 24.8712 34.663 25.0922 34.761 25.2822C35.154 24.1632 35.009 23.1432 34.847 22.0072Z" fill="#0277BD"/>
</svg>
