<svg width="48" height="48" fill="none" xmlns="http://www.w3.org/2000/svg"><path d="M9.06 31.28c-1.146 0-2.253-.14-3.32-.42-1.053-.293-1.913-.667-2.58-1.12l1.3-2.92c.627.4 1.347.733 2.16 1 .827.253 1.647.38 2.46.38.547 0 .987-.047 1.32-.14.334-.107.574-.24.72-.4a.858.858 0 0 0 .24-.6c0-.32-.146-.573-.44-.76-.293-.187-.673-.34-1.14-.46-.466-.12-.986-.24-1.56-.36-.56-.12-1.126-.273-1.7-.46a7.102 7.102 0 0 1-1.54-.72 3.708 3.708 0 0 1-1.14-1.18c-.293-.493-.44-1.113-.44-1.86 0-.84.227-1.6.68-2.28.467-.68 1.16-1.227 2.08-1.64.92-.413 2.067-.62 3.44-.62.92 0 1.82.107 2.7.32.894.2 1.687.5 2.38.9l-1.22 2.94a9.064 9.064 0 0 0-1.98-.8 6.902 6.902 0 0 0-1.9-.28c-.546 0-.986.06-1.32.18-.333.107-.573.253-.72.44-.146.187-.22.4-.22.64 0 .307.14.553.42.74.294.173.674.32 1.14.44.48.107 1 .22 1.56.34.574.12 1.14.273 1.7.46a5.961 5.961 0 0 1 1.56.72c.467.293.84.687 1.12 1.18.294.48.44 1.087.44 1.82 0 .813-.233 1.567-.7 2.26-.453.68-1.14 1.227-2.06 1.64-.906.413-2.053.62-3.44.62Zm8.03-.28V17h6.4c1.28 0 2.38.207 3.3.62.933.413 1.653 1.013 2.16 1.8.506.773.76 1.693.76 2.76 0 1.053-.254 1.967-.76 2.74-.507.773-1.227 1.373-2.16 1.8-.92.413-2.02.62-3.3.62h-4.2l1.76-1.72V31h-3.96Zm3.96-4.96-1.76-1.82h3.96c.826 0 1.44-.18 1.84-.54.413-.36.62-.86.62-1.5 0-.653-.207-1.16-.62-1.52-.4-.36-1.014-.54-1.84-.54h-3.96l1.76-1.82v7.74ZM29.256 31l6.18-14h3.9l6.2 14h-4.12l-4.84-12.06h1.56L33.297 31h-4.04Zm3.38-2.72 1.02-2.92h6.84l1.02 2.92h-8.88Z" fill="#F28723"/></svg>